<mxfile host="Electron" modified="2023-05-03T09:18:36.339Z" agent="Mozilla/5.0 (X11; Linux x86_64) AppleWebKit/537.36 (KHTML, like Gecko) draw.io/21.2.1 Chrome/106.0.5249.199 Electron/21.4.4 Safari/537.36" etag="e1pK4A0sdFVpOOYJeEVZ" version="21.2.1" type="device">
  <diagram name="Page-1" id="k3AAxL-pJGwfL85Ems1u">
    <mxGraphModel dx="1434" dy="844" grid="1" gridSize="10" guides="1" tooltips="1" connect="1" arrows="1" fold="1" page="1" pageScale="1" pageWidth="827" pageHeight="1169" math="0" shadow="0">
      <root>
        <mxCell id="0" />
        <mxCell id="1" parent="0" />
        <mxCell id="7qwyxcEEqQUu9YqwD5qP-1" value="" style="verticalLabelPosition=bottom;shadow=0;dashed=0;align=center;html=1;verticalAlign=top;shape=mxgraph.electrical.transistors.npn_transistor_1;" parent="1" vertex="1">
          <mxGeometry x="300" y="370" width="95" height="100" as="geometry" />
        </mxCell>
        <mxCell id="7qwyxcEEqQUu9YqwD5qP-3" style="edgeStyle=orthogonalEdgeStyle;rounded=0;orthogonalLoop=1;jettySize=auto;html=1;exitX=1;exitY=0.5;exitDx=0;exitDy=0;exitPerimeter=0;entryX=0.7;entryY=0;entryDx=0;entryDy=0;entryPerimeter=0;endArrow=none;endFill=0;" parent="1" source="7qwyxcEEqQUu9YqwD5qP-2" target="7qwyxcEEqQUu9YqwD5qP-1" edge="1">
          <mxGeometry relative="1" as="geometry" />
        </mxCell>
        <mxCell id="7qwyxcEEqQUu9YqwD5qP-2" value="" style="pointerEvents=1;verticalLabelPosition=bottom;shadow=0;dashed=0;align=center;html=1;verticalAlign=top;shape=mxgraph.electrical.resistors.resistor_1;rotation=90;" parent="1" vertex="1">
          <mxGeometry x="316" y="310" width="100" height="20" as="geometry" />
        </mxCell>
        <mxCell id="7qwyxcEEqQUu9YqwD5qP-5" style="edgeStyle=orthogonalEdgeStyle;rounded=0;orthogonalLoop=1;jettySize=auto;html=1;exitX=0;exitY=0.5;exitDx=0;exitDy=0;exitPerimeter=0;entryX=0.7;entryY=1;entryDx=0;entryDy=0;entryPerimeter=0;endArrow=none;endFill=0;" parent="1" source="7qwyxcEEqQUu9YqwD5qP-4" target="7qwyxcEEqQUu9YqwD5qP-1" edge="1">
          <mxGeometry relative="1" as="geometry" />
        </mxCell>
        <mxCell id="7qwyxcEEqQUu9YqwD5qP-4" value="" style="pointerEvents=1;verticalLabelPosition=bottom;shadow=0;dashed=0;align=center;html=1;verticalAlign=top;shape=mxgraph.electrical.resistors.resistor_1;rotation=90;" parent="1" vertex="1">
          <mxGeometry x="316" y="520" width="100" height="20" as="geometry" />
        </mxCell>
        <mxCell id="7qwyxcEEqQUu9YqwD5qP-6" value="10 V" style="verticalLabelPosition=top;verticalAlign=bottom;shape=mxgraph.electrical.signal_sources.vdd;shadow=0;dashed=0;align=center;strokeWidth=1;fontSize=12;html=1;flipV=1;fontFamily=Charter;" parent="1" vertex="1">
          <mxGeometry x="349" y="270" width="34" height="10" as="geometry" />
        </mxCell>
        <mxCell id="7qwyxcEEqQUu9YqwD5qP-8" value="- 10 V" style="pointerEvents=1;verticalLabelPosition=bottom;shadow=0;dashed=0;align=center;html=1;verticalAlign=top;shape=mxgraph.electrical.signal_sources.vss2;fontSize=12;flipV=1;fontFamily=Charter;" parent="1" vertex="1">
          <mxGeometry x="349" y="575" width="34" height="10" as="geometry" />
        </mxCell>
        <mxCell id="7qwyxcEEqQUu9YqwD5qP-11" style="edgeStyle=orthogonalEdgeStyle;rounded=0;orthogonalLoop=1;jettySize=auto;html=1;exitX=0.5;exitY=0;exitDx=0;exitDy=0;exitPerimeter=0;entryX=0;entryY=0.5;entryDx=0;entryDy=0;entryPerimeter=0;fontFamily=Charter;endArrow=none;endFill=0;" parent="1" source="7qwyxcEEqQUu9YqwD5qP-10" target="7qwyxcEEqQUu9YqwD5qP-1" edge="1">
          <mxGeometry relative="1" as="geometry" />
        </mxCell>
        <mxCell id="7qwyxcEEqQUu9YqwD5qP-10" value="" style="pointerEvents=1;verticalLabelPosition=bottom;shadow=0;dashed=0;align=center;html=1;verticalAlign=top;shape=mxgraph.electrical.signal_sources.protective_earth;fontFamily=Charter;" parent="1" vertex="1">
          <mxGeometry x="270" y="460" width="25" height="20" as="geometry" />
        </mxCell>
        <mxCell id="7qwyxcEEqQUu9YqwD5qP-12" value="10 k" style="text;html=1;strokeColor=none;fillColor=none;align=center;verticalAlign=middle;whiteSpace=wrap;rounded=0;fontFamily=Charter;" parent="1" vertex="1">
          <mxGeometry x="380" y="310" width="30" height="20" as="geometry" />
        </mxCell>
        <mxCell id="7qwyxcEEqQUu9YqwD5qP-13" value="10 k" style="text;html=1;strokeColor=none;fillColor=none;align=center;verticalAlign=middle;whiteSpace=wrap;rounded=0;fontFamily=Charter;" parent="1" vertex="1">
          <mxGeometry x="380" y="520" width="30" height="20" as="geometry" />
        </mxCell>
        <mxCell id="7qwyxcEEqQUu9YqwD5qP-14" value="" style="verticalLabelPosition=bottom;shadow=0;dashed=0;align=center;html=1;verticalAlign=top;shape=mxgraph.electrical.transistors.npn_transistor_1;" parent="1" vertex="1">
          <mxGeometry x="610" y="370" width="95" height="100" as="geometry" />
        </mxCell>
        <mxCell id="7qwyxcEEqQUu9YqwD5qP-15" style="edgeStyle=orthogonalEdgeStyle;rounded=0;orthogonalLoop=1;jettySize=auto;html=1;exitX=1;exitY=0.5;exitDx=0;exitDy=0;exitPerimeter=0;entryX=0.7;entryY=0;entryDx=0;entryDy=0;entryPerimeter=0;endArrow=none;endFill=0;" parent="1" source="7qwyxcEEqQUu9YqwD5qP-16" target="7qwyxcEEqQUu9YqwD5qP-14" edge="1">
          <mxGeometry relative="1" as="geometry" />
        </mxCell>
        <mxCell id="7qwyxcEEqQUu9YqwD5qP-16" value="" style="pointerEvents=1;verticalLabelPosition=bottom;shadow=0;dashed=0;align=center;html=1;verticalAlign=top;shape=mxgraph.electrical.resistors.resistor_1;rotation=90;" parent="1" vertex="1">
          <mxGeometry x="626" y="310" width="100" height="20" as="geometry" />
        </mxCell>
        <mxCell id="7qwyxcEEqQUu9YqwD5qP-17" style="edgeStyle=orthogonalEdgeStyle;rounded=0;orthogonalLoop=1;jettySize=auto;html=1;exitX=0;exitY=0.5;exitDx=0;exitDy=0;exitPerimeter=0;entryX=0.7;entryY=1;entryDx=0;entryDy=0;entryPerimeter=0;endArrow=none;endFill=0;" parent="1" source="7qwyxcEEqQUu9YqwD5qP-18" target="7qwyxcEEqQUu9YqwD5qP-14" edge="1">
          <mxGeometry relative="1" as="geometry" />
        </mxCell>
        <mxCell id="7qwyxcEEqQUu9YqwD5qP-18" value="" style="pointerEvents=1;verticalLabelPosition=bottom;shadow=0;dashed=0;align=center;html=1;verticalAlign=top;shape=mxgraph.electrical.resistors.resistor_1;rotation=90;" parent="1" vertex="1">
          <mxGeometry x="626" y="520" width="100" height="20" as="geometry" />
        </mxCell>
        <mxCell id="7qwyxcEEqQUu9YqwD5qP-19" value="10 V" style="verticalLabelPosition=top;verticalAlign=bottom;shape=mxgraph.electrical.signal_sources.vdd;shadow=0;dashed=0;align=center;strokeWidth=1;fontSize=12;html=1;flipV=1;fontFamily=Charter;" parent="1" vertex="1">
          <mxGeometry x="659" y="270" width="34" height="10" as="geometry" />
        </mxCell>
        <mxCell id="7qwyxcEEqQUu9YqwD5qP-20" value="- 10 V" style="pointerEvents=1;verticalLabelPosition=bottom;shadow=0;dashed=0;align=center;html=1;verticalAlign=top;shape=mxgraph.electrical.signal_sources.vss2;fontSize=12;flipV=1;fontFamily=Charter;" parent="1" vertex="1">
          <mxGeometry x="659" y="575" width="34" height="10" as="geometry" />
        </mxCell>
        <mxCell id="7qwyxcEEqQUu9YqwD5qP-23" value="10 k" style="text;html=1;strokeColor=none;fillColor=none;align=center;verticalAlign=middle;whiteSpace=wrap;rounded=0;fontFamily=Charter;" parent="1" vertex="1">
          <mxGeometry x="690" y="310" width="30" height="20" as="geometry" />
        </mxCell>
        <mxCell id="7qwyxcEEqQUu9YqwD5qP-24" value="10 k" style="text;html=1;strokeColor=none;fillColor=none;align=center;verticalAlign=middle;whiteSpace=wrap;rounded=0;fontFamily=Charter;" parent="1" vertex="1">
          <mxGeometry x="690" y="520" width="30" height="20" as="geometry" />
        </mxCell>
        <mxCell id="7qwyxcEEqQUu9YqwD5qP-26" style="edgeStyle=orthogonalEdgeStyle;rounded=0;orthogonalLoop=1;jettySize=auto;html=1;exitX=0;exitY=0.5;exitDx=0;exitDy=0;exitPerimeter=0;entryX=1;entryY=0.5;entryDx=0;entryDy=0;entryPerimeter=0;fontFamily=Charter;fontSize=12;endArrow=none;endFill=0;" parent="1" source="7qwyxcEEqQUu9YqwD5qP-25" target="7qwyxcEEqQUu9YqwD5qP-16" edge="1">
          <mxGeometry relative="1" as="geometry">
            <Array as="points">
              <mxPoint x="640" y="370" />
              <mxPoint x="640" y="370" />
            </Array>
          </mxGeometry>
        </mxCell>
        <mxCell id="7qwyxcEEqQUu9YqwD5qP-27" style="edgeStyle=orthogonalEdgeStyle;rounded=0;orthogonalLoop=1;jettySize=auto;html=1;exitX=1;exitY=0.5;exitDx=0;exitDy=0;exitPerimeter=0;entryX=0;entryY=0.5;entryDx=0;entryDy=0;entryPerimeter=0;fontFamily=Charter;fontSize=12;endArrow=none;endFill=0;" parent="1" source="7qwyxcEEqQUu9YqwD5qP-25" target="7qwyxcEEqQUu9YqwD5qP-14" edge="1">
          <mxGeometry relative="1" as="geometry" />
        </mxCell>
        <mxCell id="7qwyxcEEqQUu9YqwD5qP-25" value="" style="pointerEvents=1;verticalLabelPosition=bottom;shadow=0;dashed=0;align=center;html=1;verticalAlign=top;shape=mxgraph.electrical.resistors.resistor_1;rotation=-180;" parent="1" vertex="1">
          <mxGeometry x="526" y="360" width="100" height="20" as="geometry" />
        </mxCell>
        <mxCell id="7qwyxcEEqQUu9YqwD5qP-28" value="10 k" style="text;html=1;strokeColor=none;fillColor=none;align=center;verticalAlign=middle;whiteSpace=wrap;rounded=0;fontFamily=Charter;" parent="1" vertex="1">
          <mxGeometry x="561" y="340" width="30" height="20" as="geometry" />
        </mxCell>
      </root>
    </mxGraphModel>
  </diagram>
</mxfile>
